<?xml version="1.0"?>
<svg xmlns="http://www.w3.org/2000/svg" viewBox="0 0 64 64" width="512" height="512"><g id="Flat_Icon" data-name="Flat Icon"><path d="M24,41a2,2,0,0,1,2,2v4H40V45a2,2,0,0,1,2-2h7a2,2,0,0,1,2,2V29a2,2,0,0,0-2-2H23a2,2,0,0,0-2,2V41Z" style="fill:#4891d3"/><path d="M25,30V27H23a2,2,0,0,0-2,2V41h3a2,2,0,0,1,2,2v4H40V45a2,2,0,0,1,2-2h7a2,2,0,0,1,2,2V39H34A9,9,0,0,1,25,30Z" style="fill:#2d72bc"/><path d="M51,29a2,2,0,0,0-2-2H37L51,41Z" style="fill:#57b7eb"/><polygon points="51 41 51 39 49 39 51 41" style="fill:#4891d3"/><path d="M51,45V43H49A2,2,0,0,1,51,45Z" style="fill:#a1d51c"/><path d="M40,47V45a2,2,0,0,1,2-2H26v4Z" style="fill:#a1d51c"/><path d="M28,43H38a0,0,0,0,1,0,0v0a2,2,0,0,1-2,2H30a2,2,0,0,1-2-2v0A0,0,0,0,1,28,43Z" style="fill:#c4f236"/><path d="M40,51H28a4,4,0,0,0-2,.55V55H40Z" style="fill:#a1d51c"/><polygon points="40 48.33 39 47 33 47 30 51 40 51 40 48.33" style="fill:#7ab92d"/><path d="M29,51h9a0,0,0,0,1,0,0v1a1,1,0,0,1-1,1H31a2,2,0,0,1-2-2v0A0,0,0,0,1,29,51Z" style="fill:#c4f236"/><path d="M8,41H24a2,2,0,0,1,2,2V55a0,0,0,0,1,0,0H6a0,0,0,0,1,0,0V43A2,2,0,0,1,8,41Z" style="fill:#4891d3"/><path d="M24,41a2,2,0,0,1,2,2v8L16,41Z" style="fill:#57b7eb"/><path d="M3,55H29a0,0,0,0,1,0,0v1a3,3,0,0,1-3,3H6a3,3,0,0,1-3-3V55A0,0,0,0,1,3,55Z" style="fill:#fcbc04"/><path d="M9,57H28.82A3,3,0,0,0,29,56V55H7A2,2,0,0,0,9,57Z" style="fill:#f9e109"/><path d="M9,44V41H8a2,2,0,0,0-2,2V55H26V52H17A8,8,0,0,1,9,44Z" style="fill:#2d72bc"/><rect x="40" y="43" width="11" height="16" rx="2" ry="2" style="fill:#4891d3"/><path d="M42,49V43a2,2,0,0,0-2,2V57a2,2,0,0,0,2,2h7a2,2,0,0,0,2-2V53H46A4,4,0,0,1,42,49Z" style="fill:#2d72bc"/><path d="M51,45a2,2,0,0,0-2-2H42a2,2,0,0,0-.82.18L51,53Z" style="fill:#57b7eb"/><path d="M40,55H51a0,0,0,0,1,0,0v2a2,2,0,0,1-2,2H42a2,2,0,0,1-2-2V55A0,0,0,0,1,40,55Z" style="fill:#a1d51c"/><rect x="51" y="50" width="8" height="11" rx="1" ry="1" style="fill:#4891d3"/><path d="M59,51a1,1,0,0,0-1-1H52l7,7Z" style="fill:#57b7eb"/><path d="M41.56,43.05a2.43,2.43,0,0,0-.38.13L42,44V43a1.86,1.86,0,0,0-.42,0Z" style="fill:#4891d3"/><path d="M42,55h8a0,0,0,0,1,0,0v1a1,1,0,0,1-1,1H44a2,2,0,0,1-2-2v0A0,0,0,0,1,42,55Z" style="fill:#c4f236"/><path d="M52,54V50a1,1,0,0,0-1,1v9a1,1,0,0,0,1,1h6a1,1,0,0,0,1-1H58A6,6,0,0,1,52,54Z" style="fill:#2d72bc"/><path d="M38.07,11A6.5,6.5,0,0,0,38,9.91l2-1.18L38,5.27,36,6.44a6.19,6.19,0,0,0-1.9-1.09V3h-4V5.35a6,6,0,0,0-1.89,1.09l-2-1.17-2,3.46,2,1.18a5.46,5.46,0,0,0,0,2.18l-2,1.18,2,3.46,2-1.17a6,6,0,0,0,1.89,1.09V19h4V16.65A6.19,6.19,0,0,0,36,15.56l2,1.17,2-3.46-2-1.18A6.5,6.5,0,0,0,38.07,11Zm-6,2a2,2,0,1,1,2-2A2,2,0,0,1,32.07,13Z" style="fill:#fcbc04"/><path d="M28,9V6.34L26.14,5.27l-2,3.46,2,1.18a5.46,5.46,0,0,0,0,2.18l-2,1.18,2,3.46,2-1.17a6,6,0,0,0,1.89,1.09V19h4V16.76A8,8,0,0,1,28,9Z" style="fill:#e59730"/><path d="M12.83,23.17a1,1,0,0,1-.71-.29,3.08,3.08,0,0,0-4.24,0,1,1,0,1,1-1.42-1.42,5,5,0,0,1,7.08,0,1,1,0,0,1,0,1.42A1,1,0,0,1,12.83,23.17Z" style="fill:#57b7eb"/><path d="M15.66,20.34a1,1,0,0,1-.71-.29,7,7,0,0,0-9.9,0,1,1,0,0,1-1.41-1.41,9,9,0,0,1,12.72,0,1,1,0,0,1,0,1.41A1,1,0,0,1,15.66,20.34Z" style="fill:#57b7eb"/><circle cx="10" cy="25" r="1" style="fill:#57b7eb"/><path d="M10,35a1,1,0,0,1-1-1V29a1,1,0,0,1,2,0v5A1,1,0,0,1,10,35Z" style="fill:#57b7eb"/><path d="M56,46a1,1,0,0,1-1-1V15a3,3,0,0,0-3-3H43a1,1,0,0,1,0-2h9a5,5,0,0,1,5,5V45A1,1,0,0,1,56,46Z" style="fill:#c4f236"/><path d="M45,24a1,1,0,0,1-1-1V19.24a1,1,0,0,0-.55-.9l-.9-.45a1,1,0,1,1,.9-1.78l.89.44A3,3,0,0,1,46,19.24V23A1,1,0,0,1,45,24Z" style="fill:#c4f236"/><path d="M10,13a1,1,0,0,1-1-1V9a3,3,0,0,1,3-3h7a1,1,0,0,1,0,2H12a1,1,0,0,0-1,1v3A1,1,0,0,1,10,13Z" style="fill:#c4f236"/></g></svg>
