<svg height="512" viewBox="0 0 64 64" width="512" xmlns="http://www.w3.org/2000/svg"><g id="Flat"><g id="Color_copy" data-name="Color copy"><g><g><path d="m10 3h44a4 4 0 0 1 4 4v28a4 4 0 0 1 -4 4h-43a5 5 0 0 1 -5-5v-27a4 4 0 0 1 4-4z" fill="#aae1f9"/><path d="m38 31a24 24 0 0 1 -24-24v-4h-4a4 4 0 0 0 -4 4v27a5 5 0 0 0 5 5h43a4 4 0 0 0 4-4v-4z" fill="#57b7eb"/><g><path d="m35 15h-2v7.277a2 2 0 1 1 -2 0v-7.277h-2l-4 10 2 4h10l2-4z" fill="#f9e109"/><path d="m21 19a5 5 0 0 1 -10 0c0-2.761 4.609-12.734 5-10 1 7 5 7.239 5 10z" fill="#c4f236"/><path d="m18 20a5 5 0 0 1 -5-5 17.987 17.987 0 0 1 1.547-5.26c-1.483 2.337-3.547 7.412-3.547 9.26a5 5 0 0 0 10 0v-.021a4.955 4.955 0 0 1 -3 1.021z" fill="#a1d51c"/><path d="m44 17h8l-4-10z" fill="#f9e109"/><path d="m44 17h4v-10z" fill="#fcbc04"/><rect fill="#d0d8da" height="4" rx="2" width="14" x="25" y="29"/><path d="m27 33h10v6h-10z" fill="#a1d51c"/><path d="m44 17h8v22h-8z" fill="#c4f236"/><path d="m48 7-2.4 6h4.8z" fill="#93999a"/><path d="m12 23h8v4h-8z" fill="#d0d8da"/><path d="m20 27h-8l1 12h6z" fill="#f9e109"/><path d="m27 29a2 2 0 0 0 0 4h10a2 2 0 0 0 2-2h-10a2 2 0 0 1 -2-2z" fill="#93999a"/><path d="m27 33v6h3a4 4 0 0 1 4-4h3v-2z" fill="#7ab92d"/><path d="m48 7-2.4 6h2.4z" fill="#656b76"/><path d="m48 31v-14h-4v22h8v-4a4 4 0 0 1 -4-4z" fill="#a1d51c"/><path d="m12 23h4v4h-4z" fill="#93999a"/><path d="m16 32v-5h-4l1 12h6l.256-3.075a4 4 0 0 1 -3.256-3.925z" fill="#fcbc04"/><path d="m46.5 17h3v22h-3z" fill="#57b7eb"/><path d="m48 31v-14h-1.5v22h3v-4.9a3.973 3.973 0 0 1 -1.5-3.1z" fill="#4891d3"/><path d="m38 26a5.968 5.968 0 0 1 -4.046-1.579 2 2 0 1 1 -2.954-2.144v-7.277h-2l-4 10 2 4h10l1.5-3z" fill="#fcbc04"/></g><path d="m17 45h30a2 2 0 0 1 2 2v2a0 0 0 0 1 0 0h-34a0 0 0 0 1 0 0v-2a2 2 0 0 1 2-2z" fill="#d0d8da"/><path d="m43 45h-22l3-6h16z" fill="#93999a"/><path d="m18 45h-1a2 2 0 0 0 -2 2v2h34v-2h-29a2 2 0 0 1 -2-2z" fill="#93999a"/><path d="m21 45 3-6h16z" fill="#656b76"/></g><g><path d="m41 53h19v8h-19z" fill="#aae1f9"/><path d="m54.232 55.4-3.232 1.6-.232-3.6 6.5-11.258a2 2 0 0 1 2.732-.73 2 2 0 0 1 .732 2.732z" fill="#f9e109"/><path d="m41 53h5v8h-5z" fill="#57b7eb"/><path d="m60 41.412-.018-.008a2.011 2.011 0 0 1 -.25.74l-5.289 9.156a8.008 8.008 0 0 1 -3.383 3.172l-.216.107.156 2.421 3.232-1.6 6.5-11.258a2 2 0 0 0 -.732-2.73z" fill="#fcbc04"/><path d="m51 59a8 8 0 0 1 -7.738-6h-2.262v8h19v-2z" fill="#57b7eb"/><path d="m43.262 53h-2.262v8h5v-3.764a8.017 8.017 0 0 1 -2.738-4.236z" fill="#4891d3"/></g><g><path d="m6 57h4v4h-4z" fill="#d0d8da"/><path d="m6 53h4v4h-4z" fill="#d0d8da"/><path d="m10 57h4v4h-4z" fill="#d0d8da"/><path d="m10 53h4v4h-4z" fill="#d0d8da"/><path d="m14 53h4v4h-4z" fill="#d0d8da"/><path d="m18 53h4v4h-4z" fill="#d0d8da"/><path d="m22 53h4v4h-4z" fill="#d0d8da"/><path d="m26 53h4v4h-4z" fill="#d0d8da"/><path d="m30 53h4v4h-4z" fill="#d0d8da"/><path d="m30 57h4v4h-4z" fill="#d0d8da"/><path d="m26 57h4v4h-4z" fill="#d0d8da"/><path d="m14 57h12v4h-12z" fill="#d0d8da"/><g fill="#93999a"><path d="m34 56a2 2 0 0 1 -2-2v-1h-2v4h4z"/><path d="m30 56a2 2 0 0 1 -2-2v-1h-2v4h4z"/><path d="m26 56a2 2 0 0 1 -2-2v-1h-2v4h4z"/><path d="m22 56a2 2 0 0 1 -2-2v-1h-2v4h4z"/><path d="m18 56a2 2 0 0 1 -2-2v-1h-2v4h4z"/><path d="m14 56a2 2 0 0 1 -2-2v-1h-2v4h4z"/><path d="m10 56a2 2 0 0 1 -2-2v-1h-2v4h4z"/><path d="m34 60a2 2 0 0 1 -2-2v-1h-2v4h4z"/><path d="m30 60a2 2 0 0 1 -2-2v-1h-2v4h4z"/><path d="m14 60a2 2 0 0 1 -2-2v-1h-2v4h4z"/><path d="m10 60a2 2 0 0 1 -2-2v-1h-2v4h4z"/><path d="m18 60a2 2 0 0 1 -2-2v-1h-2v4h4z"/><path d="m18 60h8v1h-8z"/></g></g></g></g></g></svg>