<?xml version="1.0" encoding="iso-8859-1"?>
<!-- Generator: Adobe Illustrator 19.0.0, SVG Export Plug-In . SVG Version: 6.00 Build 0)  -->
<svg version="1.1" id="Capa_1" xmlns="http://www.w3.org/2000/svg" xmlns:xlink="http://www.w3.org/1999/xlink" x="0px" y="0px"
	 viewBox="0 0 512 512" style="enable-background:new 0 0 512 512;" xml:space="preserve">
<path style="fill:#3594C7;" d="M489.902,258.229c-11.995-16.059-28.37-28.736-46.802-36.384
	c-3.773-21.385-14.386-40.976-30.478-55.957c-18.173-16.919-41.725-26.423-66.509-26.88c-12.253-22.052-29.758-40.782-51.083-54.556
	c-24.797-16.017-53.572-24.483-83.214-24.483c-84.682,0-153.575,68.894-153.575,153.575c0,4.347,0.186,8.714,0.555,13.064
	C22.734,245.861,0,283.2,0,324.768c0,61.426,49.974,111.333,111.4,111.333h289.2c61.426,0,111.4-49.907,111.4-111.334
	C512,300.549,504.358,277.584,489.902,258.229z"/>
<path style="fill:#16DCFA;" d="M255.999,66.429c-14.229-4.267-29.093-6.46-44.182-6.46c-84.682,0-153.575,68.894-153.575,153.575
	c0,4.347,0.186,8.714,0.555,13.064C22.734,245.861,0,283.2,0,324.768c0,61.426,49.974,111.333,111.4,111.333H256L255.999,66.429z"/>
<path style="fill:#C6BDD6;" d="M175.325,188.898H45c-24.813,0-45,20.187-45,45v173.134c0,24.813,20.187,45,45,45h130.324
	c24.813,0,45-20.187,45-45V233.898C220.325,209.085,200.138,188.898,175.325,188.898z"/>
<path style="fill:#F5F2FC;" d="M110.163,188.898H45c-24.813,0-45,20.187-45,45v173.134c0,24.813,20.187,45,45,45h65.162
	L110.163,188.898L110.163,188.898z"/>
<path style="fill:#7F748C;" d="M158.821,284.027H61.504c-8.284,0-15-6.716-15-15s6.716-15,15-15h97.316c8.284,0,15,6.716,15,15
	S167.105,284.027,158.821,284.027z"/>
<path style="fill:#BFBCD6;" d="M110.163,284.027H61.504c-8.284,0-15-6.716-15-15s6.716-15,15-15h48.658L110.163,284.027
	L110.163,284.027z"/>
<path style="fill:#7F748C;" d="M158.821,335.465H61.504c-8.284,0-15-6.716-15-15s6.716-15,15-15h97.316c8.284,0,15,6.716,15,15
	S167.105,335.465,158.821,335.465z"/>
<path style="fill:#BFBCD6;" d="M110.163,335.465H61.504c-8.284,0-15-6.716-15-15s6.716-15,15-15h48.658L110.163,335.465
	L110.163,335.465z"/>
<path style="fill:#7F748C;" d="M158.821,386.904H61.504c-8.284,0-15-6.716-15-15s6.716-15,15-15h97.316c8.284,0,15,6.716,15,15
	S167.105,386.904,158.821,386.904z"/>
<path style="fill:#BFBCD6;" d="M110.163,386.904H61.504c-8.284,0-15-6.716-15-15s6.716-15,15-15h48.658L110.163,386.904
	L110.163,386.904z"/>
<g>
</g>
<g>
</g>
<g>
</g>
<g>
</g>
<g>
</g>
<g>
</g>
<g>
</g>
<g>
</g>
<g>
</g>
<g>
</g>
<g>
</g>
<g>
</g>
<g>
</g>
<g>
</g>
<g>
</g>
</svg>
